<svg width="256" height="256" viewBox="0 0 256 256" fill="none" xmlns="http://www.w3.org/2000/svg"><path d="M108.83 122.669c6.573 0 11.901-5.328 11.901-11.9 0-6.573-5.328-11.901-11.901-11.901V83c15.336 0 27.769 12.432 27.769 27.769s-12.433 27.768-27.769 27.768z" fill="#2B2B2B"/><path d="M69.159 101.513h15.867v50.248a7.934 7.934 0 0 1-15.868 0z" fill="#CD182C"/><path d="M48 130.605a7.934 7.934 0 0 1 7.934-7.934h50.248v15.868H55.934A7.934 7.934 0 0 1 48 130.605" fill="#CD182C"/><path d="M69.159 90.934A7.934 7.934 0 0 1 77.093 83h31.735v15.868H77.093a7.934 7.934 0 0 1-7.934-7.934m117.499 63.407 8.463-28.733a4 4 0 0 1 3.837-2.869h3.396c2.757 0 4.688 2.725 3.773 5.326l-12.588 35.806q-.465 1.357-1.23 2.912-.763 1.588-2.094 3.012-1.33 1.422-3.424 2.316-2.06.893-5.119.893-1.629 0-2.394-.165c-1.335-.242-2.26-1.454-2.26-2.811v-4.929a.73.73 0 0 1 .731-.731h.731q1.795 0 2.859-.364 1.098-.364 1.662-1.059.599-.696.931-1.688zm-5.386-31.602a4 4 0 0 1 3.849 2.912l6.164 21.806q.094.332.129.674l.735 7.057a4 4 0 0 1-3.979 4.414h-.229a4 4 0 0 1-3.779-2.688l-10.02-28.864c-.903-2.599 1.027-5.311 3.778-5.311zm-22.775 25.668v-15.915q0-1.641-.466-2.819t-1.47-1.819q-1.003-.678-2.689-.678-1.361 0-2.33.463a3.2 3.2 0 0 0-1.469 1.392c-.639 1.182-1.591 2.355-2.935 2.355h-5.647c-2.209 0-4.086-1.852-3.289-3.913a10 10 0 0 1 .472-1.047q1.218-2.319 3.441-4.032 2.259-1.713 5.377-2.641 3.154-.963 7.026-.963 4.624 0 8.244 1.534 3.656 1.535 5.771 4.604 2.115 3.033 2.115 7.636v15.807q0 3.783.43 5.745.415 1.857 1.162 3.282.056.108.057.23a.485.485 0 0 1-.484.485h-9.12c-1.535 0-2.969-.875-3.371-2.357a21 21 0 0 1-.431-1.997 36 36 0 0 1-.394-5.352m-1.707-13.881a3.212 3.212 0 1 1 0 6.423h-2.093q-1.685 0-2.868.464-1.147.463-1.864 1.285a5.1 5.1 0 0 0-1.003 1.784 7.6 7.6 0 0 0-.287 2.105q0 1.07.502 1.927.537.82 1.433 1.285.897.463 2.008.463 2.007 0 3.405-.749 1.434-.785 2.187-1.891c.329-.484 1.535-.617 1.813-.102l1.284 2.385c.193.358.201.789.011 1.148a34 34 0 0 1-1.352 2.314 12.6 12.6 0 0 1-2.258 2.712q-1.327 1.214-3.262 1.998-1.935.75-4.696.749-3.585 0-6.595-1.463-2.976-1.462-4.768-4.068-1.792-2.64-1.792-6.066 0-2.997 1.075-5.352 1.111-2.355 3.334-3.997 2.222-1.64 5.663-2.497t8.102-.857z" fill="#2B2B2B"/></svg>